<?xml version="1.0" encoding="utf-8"?>
<!-- Generator: Adobe Illustrator 15.0.0, SVG Export Plug-In . SVG Version: 6.00 Build 0)  -->
<!DOCTYPE svg PUBLIC "-//W3C//DTD SVG 1.1//EN" "http://www.w3.org/Graphics/SVG/1.1/DTD/svg11.dtd">
<svg version="1.1" id="Capa_1" xmlns="http://www.w3.org/2000/svg" xmlns:xlink="http://www.w3.org/1999/xlink" x="0px" y="0px"
	 width="300px" height="300px" viewBox="0 0 300 300" enable-background="new 0 0 300 300" xml:space="preserve">
<g>
	<g>
		<g>
			<path fill="#27AAE1" d="M149.949,94.382c12.623,0,22.855-10.232,22.855-22.855c0-12.625-10.232-22.857-22.855-22.857
				s-22.855,10.232-22.855,22.857C127.094,84.149,137.326,94.382,149.949,94.382z"/>
			<path fill="#27AAE1" d="M194.139,163.479c1.553-13.049,3.569-53.915-30.385-65.163c-0.682-0.228-6.039-2.17-8.111-2.674
				l-5.631,5.795l-5.579-5.793c-0.026,0.005-0.04,0.005-0.059,0.009c-2.123,0.511-7.455,2.454-8.07,2.667
				c-34.143,11.937-32.011,52.23-30.402,65.163H85.104v15.27h7.293v72.02h14.177V178.75h14.669
				c-1.089,1.906-1.613,4.146-1.355,6.464l6.753,56.055c0.602,5.434,5.206,9.461,10.562,9.461c0.388,0,0.781-0.023,1.172-0.062
				c5.838-0.654,10.05-5.906,9.402-11.742l-5.879-48.099l8.081-3.304l7.817,3.257l-5.834,48.194
				c-0.637,5.841,3.585,11.087,9.42,11.719c0.395,0.045,0.777,0.069,1.16,0.069c5.357,0,9.967-4.032,10.564-9.474l6.701-56.095
				c0.254-2.304-0.266-4.542-1.354-6.446h14.87v72.017h14.174V178.75h7.397v-15.271H194.139z M126.557,163.481h-2.718
				c-0.574-3.823-2.74-21.256,2.718-34.277V163.481z M150.033,146.671h-0.102l-5.542-7.547l5.542-36.843h0.102l5.484,36.843
				L150.033,146.671z M176.216,163.481h-2.872v-34.394C179.004,142.163,176.789,159.662,176.216,163.481z"/>
		</g>
		<g>
			<circle fill="#27AAE1" cx="44.526" cy="83.307" r="21.896"/>
			<path fill="#27AAE1" d="M94.923,143.449c-26.096,1.933-29.495-7.19-35.855-24.228c-2.221-6.231-8.379-10.443-14.252-11.894
				c0,0-2.302-0.691-4.749-0.644c-2.359,0.054-4.975,0.601-4.975,0.601l-0.064,0.004c-7.371,1.794-15.211,7.787-15.232,16.792
				l-0.047,48.321c-0.013,10.496,7.173,16.096,16.838,16.109c0.141,0,13.503-0.016,13.503-0.016s14.338-0.463,13.027,14.877
				c-0.938,10.981-2.377,23.246-3.521,36.402c-0.508,5.846,3.816,11.005,9.671,11.516c0.315,0.029,0.625,0.039,0.936,0.039
				c5.452,0,10.095-4.166,10.58-9.701c5.022-57.468,2.776-60.982,1.23-64.604c-1.674-3.154-4.976-7.527-22.082-8.72l0.018-14.18
				c5.933,4.543,13.911,6.688,26.05,6.688c3.113,0,6.488-0.139,10.184-0.405c4.676-0.347,8.189-4.433,7.848-9.11
				C103.681,146.615,99.601,143.111,94.923,143.449z"/>
			<path fill="#27AAE1" d="M51.032,192.826c-1.765,0-5.841,0-14.511,0c-22.432,0-20.157-20.287-20.157-20.287v-42.702
				c0-4.517-3.66-8.176-8.182-8.176c-4.52,0-8.182,3.659-8.182,8.176v71.167c0,2.663,1.297,5.012,3.273,6.507v43.038h9.814v-41.357
				h29.454v41.357h9.813v-41.495c3.882-0.638,6.853-3.984,6.853-8.046C59.208,196.479,55.554,192.826,51.032,192.826z"/>
			<circle fill="#27AAE1" cx="255.475" cy="83.307" r="21.896"/>
			<path fill="#27AAE1" d="M236.886,203.373c-1.311-15.34,13.027-14.877,13.027-14.877s13.362,0.016,13.503,0.016
				c9.664-0.014,16.852-5.613,16.838-16.109l-0.047-48.321c-0.021-9.005-7.861-14.998-15.232-16.792l-0.064-0.004
				c0,0-2.615-0.547-4.975-0.601c-2.447-0.048-4.75,0.644-4.75,0.644c-5.873,1.451-12.031,5.663-14.252,11.894
				c-6.359,17.037-9.758,26.161-35.855,24.228c-4.678-0.338-8.756,3.166-9.104,7.847c-0.342,4.679,3.172,8.765,7.848,9.11
				c3.695,0.268,7.071,0.406,10.184,0.406c12.139,0,20.117-2.146,26.05-6.688l0.018,14.179c-17.105,1.193-20.407,5.566-22.081,8.721
				c-1.547,3.622-3.791,7.137,1.229,64.604c0.485,5.536,5.128,9.702,10.579,9.702c0.312,0,0.621-0.011,0.937-0.039
				c5.854-0.512,10.179-5.672,9.671-11.517C239.264,226.62,237.824,214.354,236.886,203.373z"/>
			<path fill="#27AAE1" d="M291.819,121.662c-4.522,0-8.182,3.659-8.182,8.176v42.702c0,0,2.274,20.286-20.158,20.286
				c-8.671,0-12.746,0-14.51,0c-4.522,0-8.177,3.653-8.177,8.184c0,4.061,2.972,7.406,6.854,8.045v41.496h9.812v-41.357h29.453
				v41.357h9.814v-43.039c1.976-1.495,3.273-3.843,3.273-6.507v-71.167C300,125.321,296.339,121.662,291.819,121.662z"/>
		</g>
	</g>
</g>
</svg>
